<svg id="Layer_1" data-name="Layer 1" xmlns="http://www.w3.org/2000/svg" viewBox="0 0 1024 1024"><defs><style>.cls-1,.cls-2{stroke:#000;stroke-miterlimit:10;}.cls-2{fill:none;stroke-linecap:round;stroke-width:3px;}</style></defs><title>Artboard 1</title><path d="M388.19,294.85c23.68,8.27,38.58,12,60.61,16.7a62.6,62.6,0,0,0,19.58,35,67.58,67.58,0,0,0,16,10.73,73.86,73.86,0,0,0,31.91,7.26,68.32,68.32,0,0,0,39.15-12c20.22-14.17,30.31-41.21,24-64.3-4-14.68-17.8-24-28.66-29.29l-.3-.14-.19-.09c-17.62-8.38-41.15-10.57-62.94-5.87l-1.27.3-.51.12c-16.8,4-27.25,12.1-32.9,25.44-2.35,5.56-4.49,11-5,16.38-12.56-2.7-24.2-5.63-35.48-8.47l-3.8-1c-7.07-1.78-15.43-3.91-23.8-6.24a2,2,0,0,0-2.51,1.43C381.32,283.39,384.49,293.56,388.19,294.85Zm116.68,9.44c-12.31-1.15-25.26-3-39.52-5.67.62-10,7.69-19.27,18.32-23.74,20.38-8.58,55.29-7.23,72.78,8.45a24.48,24.48,0,0,1,7.94,13.74c.37,2.18.22,3.69-.45,4.59-1,1.42-3.82,1.78-7,2.21l-2.05.28C537.1,306.76,518.82,305.6,504.88,304.29Zm-1.54,16.63c20.31,2.3,38.33,2.51,55.08.63a43.18,43.18,0,0,1-10.76,12.27c-12.48,9.3-29.47,13-45.46,10a46.17,46.17,0,0,1-32.63-25.41c-.52-1.07-.92-2-1.29-3C481.52,318,492.73,319.72,503.34,320.92Z"/><path d="M640,431.28c-13.75-34.54-55.75-43.77-79.56-46.2-44.92-4.58-88.43-4.53-129.33.16-11.63,1.33-20.87,4.46-30,10.13-18.52,11.57-31.15,34.11-30.7,54.83.26,11.85,5.79,39.36,9.23,53.95,1,4,5.35,5.7,8.94,5.66h.2c2,0,5.4-.09,7.07-2.26a4.93,4.93,0,0,0,.69-4.34c-.56-4-1.45-8.7-2.39-13.63-4.18-21.84-9.91-51.74,6-69.69,18.78-21.21,53-21.54,107.05-19.56,58.59,2.14,92.36,11.26,106.28,28.7,9.37,11.74,13.07,28.43,9.42,42.53-3.34,12.91-12.28,22.62-28.12,30.58a40.69,40.69,0,0,1-4.58,1.92,28.46,28.46,0,0,0,2-5.5c3.25-12.8-1.48-26.43-13.33-38.39-11.65-11.76-29.64-21.18-50.67-26.53a153.61,153.61,0,0,0-32.5-4.65,110.68,110.68,0,0,0-19.42.73c-3.56.41-7,1-10.16,1.67-19.65,4.3-32.23,13.58-35.42,26.13-4,15.92,6.28,34.06,27.61,48.53a125.12,125.12,0,0,0,27.8,14,155.08,155.08,0,0,0,59.61,12.06,138.39,138.39,0,0,0,47.66-8.24c2.68-1,5.37-2.09,8-3.28,10-4.51,27.95-14.44,36.25-30.18C646.51,473.66,647.43,449.92,640,431.28Zm-144.2,74C465.31,495.57,445.18,477,449,462c1.9-7.49,11-13.26,25.05-15.85,14.23-2.63,31.94-1.71,48.59,2.52,16.35,4.15,30.41,11.2,39.59,19.83,8.66,8.15,12.33,17,10.32,24.9-2.08,8.17-11.38,14.24-25.52,16.66-12.75,2.18-28.3,1.22-43.78-2.72h0C500.81,506.76,498.32,506,495.8,505.25Z"/><path d="M269.82,572.15a18.78,18.78,0,0,1,3.71-9.32,21.55,21.55,0,0,1,7.52-6.11,39.37,39.37,0,0,1,10.72-3.44A87.85,87.85,0,0,1,305.06,552q7.17-.2,15.26.35T337,553.75q11.54,1.18,24.12,3.15t26.2,5.21a7.47,7.47,0,0,1,4.35,2.52,5.53,5.53,0,0,1,1.06,3.65,7.13,7.13,0,0,1-.79,2.82,10,10,0,0,1-1.78,2.46,7.79,7.79,0,0,1-2.48,1.71,6.06,6.06,0,0,1-2.87.5,87.47,87.47,0,0,1-10.73-1.47q-5.55-1.1-11.55-2.44l-12.35-2.76q-6.35-1.42-13.13-2.52a142,142,0,0,1-5.19,16.68q-3.12,8.21-6.44,16.8t-6.68,17.15q-3.36,8.56-6.48,16.39T306.46,648q-2.67,6.61-4.62,11.37a13.83,13.83,0,0,1-2.28,3.84,16.46,16.46,0,0,1-3.11,2.88,12.52,12.52,0,0,1-3.39,1.73,7.34,7.34,0,0,1-3.12.37,12.46,12.46,0,0,1-6.71-2.64q-2.5-2.13-2-6.08a10.46,10.46,0,0,1,.78-2.71q2.3-5.62,4.58-11.24t4.75-11.78q2.47-6.16,5.89-12.9T304.75,606q4.09-8.11,8.85-18.24t10.26-22.6q-3.57-.11-7.25-.18t-7.19.11a61.35,61.35,0,0,0-6.71.7,29.39,29.39,0,0,0-5.93,1.57,12.71,12.71,0,0,0-4.47,2.8,7.31,7.31,0,0,0-2.08,4.36c0,.09-.13.59-.36,1.5a7.81,7.81,0,0,1-1.5,2.86,9.28,9.28,0,0,1-3.42,2.57,10.86,10.86,0,0,1-6.08.55,11.2,11.2,0,0,1-5.75-2.13,9.28,9.28,0,0,1-2.65-3.33A8.61,8.61,0,0,1,269.82,572.15Z"/><path d="M407.76,657.87a61.12,61.12,0,0,1-4.63,4.79,50.63,50.63,0,0,1-6.45,5.14,38,38,0,0,1-7.6,4,18.37,18.37,0,0,1-8,1.28,11.43,11.43,0,0,1-7.68-3.35,22.33,22.33,0,0,1-4.82-8.51,33,33,0,0,1-4.5,3.41,37.13,37.13,0,0,1-5.75,3,36,36,0,0,1-6.41,2,21.86,21.86,0,0,1-6.54.41,17.54,17.54,0,0,1-6.53-1.91,17.23,17.23,0,0,1-5.35-4.28,18.08,18.08,0,0,1-3.38-6.33,20.14,20.14,0,0,1-.69-8,37.35,37.35,0,0,1,2.5-10,64.91,64.91,0,0,1,5.66-10.82,63.11,63.11,0,0,1,7.58-9.85,48.8,48.8,0,0,1,8.35-7,38.56,38.56,0,0,1,9.18-4.49,24.09,24.09,0,0,1,9.49-1.2c.5,0,8.3.32,12.22,2.39a9.28,9.28,0,0,1,4.84,6.85,11.4,11.4,0,0,1,.16,3.31,40.14,40.14,0,0,1-1.16,7q-1,3.81-2.12,7.81t-2.69,9.1a41.74,41.74,0,0,0-1.77,8.66,15,15,0,0,0,.27,4.79,2.46,2.46,0,0,0,2.46,1.89,7.92,7.92,0,0,0,3.15-.48,19.47,19.47,0,0,0,3.4-1.59,36,36,0,0,0,3.47-2.32q1.74-1.31,3.31-2.73a96.55,96.55,0,0,0,7.41-7.61C406.21,649,406.72,652,407.76,657.87Zm-60-9.55a21.76,21.76,0,0,0-.05,3.33,9.61,9.61,0,0,0,.63,2.94,5.67,5.67,0,0,0,1.51,2.2,4.4,4.4,0,0,0,2.62,1,6.54,6.54,0,0,0,4.92-1.73,20.59,20.59,0,0,0,4.09-4.83,35.18,35.18,0,0,0,3-6,36,36,0,0,0,1.65-5.24c2.77-8.44,4.14-12.67,6.86-21.12a12.34,12.34,0,0,0-5.63.91A20.94,20.94,0,0,0,362,623a33.77,33.77,0,0,0-4.84,4.88,49,49,0,0,0-4.59,6.94,45.89,45.89,0,0,0-3.43,7.36A26.11,26.11,0,0,0,347.74,648.32Z"/><path d="M607.62,657.08a61.13,61.13,0,0,1-4,5.29,50.64,50.64,0,0,1-5.81,5.85,38,38,0,0,1-7.08,4.82,18.36,18.36,0,0,1-7.75,2.2,11.42,11.42,0,0,1-8-2.43,22.34,22.34,0,0,1-5.78-7.89,33.07,33.07,0,0,1-4.07,3.91,37.16,37.16,0,0,1-5.36,3.64,36,36,0,0,1-6.13,2.73,21.83,21.83,0,0,1-6.44,1.17,17.51,17.51,0,0,1-6.7-1.14,17.21,17.21,0,0,1-5.81-3.63,18.08,18.08,0,0,1-4.09-5.89,20.16,20.16,0,0,1-1.62-7.91,37.39,37.39,0,0,1,1.31-10.22,64.94,64.94,0,0,1,4.36-11.4A63.1,63.1,0,0,1,541,625.53a48.77,48.77,0,0,1,7.47-7.94,38.52,38.52,0,0,1,8.59-5.53,24.06,24.06,0,0,1,9.28-2.29c.5,0,8.27-.65,12.41,1a9.28,9.28,0,0,1,5.61,6.24,11.41,11.41,0,0,1,.54,3.27,40.15,40.15,0,0,1-.34,7.07q-.5,3.9-1.2,8t-1.61,9.35a41.76,41.76,0,0,0-.75,8.8,15,15,0,0,0,.82,4.73,2.46,2.46,0,0,0,2.66,1.59,7.92,7.92,0,0,0,3.07-.85,19.47,19.47,0,0,0,3.19-2,36,36,0,0,0,3.18-2.71q1.58-1.5,3-3.1a96.6,96.6,0,0,0,6.47-8.42C605,648.45,605.9,651.33,607.62,657.08Zm-60.7-2.49a21.77,21.77,0,0,0,.34,3.32,9.61,9.61,0,0,0,1,2.85,5.67,5.67,0,0,0,1.76,2,4.4,4.4,0,0,0,2.72.71,6.53,6.53,0,0,0,4.68-2.29,20.59,20.59,0,0,0,3.5-5.27,35.19,35.19,0,0,0,2.28-6.3,36,36,0,0,0,1-5.39c1.77-8.71,2.64-13.07,4.35-21.78a12.32,12.32,0,0,0-5.48,1.56,20.92,20.92,0,0,0-5,3.83,33.76,33.76,0,0,0-4.24,5.41,49,49,0,0,0-3.75,7.43,45.91,45.91,0,0,0-2.55,7.71A26.13,26.13,0,0,0,546.92,654.59Z"/><path d="M742.15,643.33a61.18,61.18,0,0,1-3.62,5.6,50.72,50.72,0,0,1-5.34,6.3,38.08,38.08,0,0,1-6.69,5.37,18.42,18.42,0,0,1-7.56,2.81,11.45,11.45,0,0,1-8.2-1.79,22.34,22.34,0,0,1-6.39-7.41,33.1,33.1,0,0,1-3.76,4.22,37.24,37.24,0,0,1-5.06,4.06,36.05,36.05,0,0,1-5.9,3.21,21.88,21.88,0,0,1-6.34,1.68,17.55,17.55,0,0,1-6.77-.61,17.23,17.23,0,0,1-6.09-3.16,18.08,18.08,0,0,1-4.54-5.55,20.14,20.14,0,0,1-2.24-7.76,37.35,37.35,0,0,1,.51-10.29,64.89,64.89,0,0,1,3.45-11.71,63.08,63.08,0,0,1,5.52-11.14,48.79,48.79,0,0,1,6.83-8.51,38.58,38.58,0,0,1,8.14-6.19,24.12,24.12,0,0,1,9.09-3c.5-.06,8.21-1.3,12.46,0a9.28,9.28,0,0,1,6.09,5.77,11.39,11.39,0,0,1,.8,3.21,40,40,0,0,1,.22,7.08q-.19,3.93-.57,8.07t-.87,9.45a41.68,41.68,0,0,0-.05,8.84,14.93,14.93,0,0,0,1.2,4.65,2.46,2.46,0,0,0,2.78,1.37,7.94,7.94,0,0,0,3-1.09,19.52,19.52,0,0,0,3-2.22,36.11,36.11,0,0,0,3-3q1.46-1.62,2.72-3.33a96.68,96.68,0,0,0,5.8-8.91C738.9,634.93,740,637.73,742.15,643.33Zm-60.81,2.32a21.68,21.68,0,0,0,.6,3.28,9.59,9.59,0,0,0,1.19,2.77,5.67,5.67,0,0,0,1.91,1.86,4.41,4.41,0,0,0,2.77.49,6.54,6.54,0,0,0,4.49-2.65,20.59,20.59,0,0,0,3.08-5.53,35.17,35.17,0,0,0,1.78-6.46,36,36,0,0,0,.61-5.46c1.08-8.82,1.6-13.23,2.62-22.05a12.36,12.36,0,0,0-5.35,2,21,21,0,0,0-4.65,4.21,33.77,33.77,0,0,0-3.8,5.73,49,49,0,0,0-3.16,7.7,45.87,45.87,0,0,0-1.94,7.89A26.1,26.1,0,0,0,681.34,645.65Z"/><path d="M445,661.81a60,60,0,0,1-6.5,4.46,65.94,65.94,0,0,1-8.38,4.26,62.94,62.94,0,0,1-9.15,3.09,29.62,29.62,0,0,1-8.79,1A17.48,17.48,0,0,1,406,673.3a10.36,10.36,0,0,1-3.94-2.92,10.08,10.08,0,0,1-2-4.34,20.89,20.89,0,0,1-.35-5.51,57.4,57.4,0,0,1,1.56-9.69c1.8-7.6,2.91-11.87,3.34-12.79.74-1.85,2.17-6.12,4.49-12.34,1.91-5.13,3.35-8.6,3.79-10.14a5.63,5.63,0,0,1,2.05-2.92,12.63,12.63,0,0,1,3.3-1.82,18,18,0,0,1,3.76-1,18.81,18.81,0,0,1,3.49-.21q2.83.13,3.8,1.2a3.77,3.77,0,0,1,.89,2.8,17.35,17.35,0,0,1-.88,4.1l-1.88,6q-1.06,3.37-3.09,8.65a65.67,65.67,0,0,0-2.88,9q-.84,3.75-2,7.43a26.24,26.24,0,0,0-1.34,6.73,13,13,0,0,0,.48,4.78,2.81,2.81,0,0,0,2.82,1.89,12.15,12.15,0,0,0,5.73-1.41,49.07,49.07,0,0,0,6.45-3.76q3.27-2.23,6.38-4.65t5.49-4.13Zm-28-70.94a10.75,10.75,0,0,1,.85-3.45,10.9,10.9,0,0,1,2.38-3.54,12.28,12.28,0,0,1,4.19-2.69,15.1,15.1,0,0,1,6.35-.89,18.05,18.05,0,0,1,4.42.72,11,11,0,0,1,3.58,1.78,7.87,7.87,0,0,1,2.36,3,9.44,9.44,0,0,1,.76,4.32,13.33,13.33,0,0,1-.91,4.4,10.21,10.21,0,0,1-2.52,3.73,12.21,12.21,0,0,1-4.23,2.55,15.33,15.33,0,0,1-6,.79q-6-.26-8.73-3.19A9.83,9.83,0,0,1,416.92,590.87Z"/><path d="M470.68,643.79a86.67,86.67,0,0,1-5,13.16,59.53,59.53,0,0,1-6.18,10.23,29.39,29.39,0,0,1-6.76,6.6A11.44,11.44,0,0,1,446,676q-5.39-.17-7.64-7.9t-1.66-22.66l.49-13.05c.14-3.77.38-9.44.8-10.78a34.34,34.34,0,0,1,1.65-4.17,16.92,16.92,0,0,1,2.53-3.91,12.9,12.9,0,0,1,3.52-2.87,9.05,9.05,0,0,1,4.75-1l1.78.18a9.14,9.14,0,0,1,5,1.29,3.52,3.52,0,0,1,1.67,3.11q-3.27,19.24-6.66,38.46l.92,0q3.3-6.69,6.09-13.57t4.8-11.29q2-4.41,3.83-7.69a25.44,25.44,0,0,1,3.93-5.44,13.84,13.84,0,0,1,4.7-3.21,15.82,15.82,0,0,1,6.17-1,7.89,7.89,0,0,1,4.62,1.21,3.63,3.63,0,0,1,1.59,3.1Q485.47,634,482,653.25l1.06,0q8.89-19,17.53-38a7.43,7.43,0,0,1,3.57-3.29,14.06,14.06,0,0,1,6.51-1.45,11.5,11.5,0,0,1,6.33,1.51,4.66,4.66,0,0,1,2.45,4,13.53,13.53,0,0,1-.61,4q-.63,2.13-1.37,4T516,627l-.75,1.43q-1.5,2.67-3.11,6.27c-1.07,2.4-1.93,4.19-2.58,5.33-.76,1.33-1.48,2.58-2.08,3.73a18.26,18.26,0,0,0,2.54,4.64,16.27,16.27,0,0,0,3.32,3.17,7.66,7.66,0,0,0,4.72,1.42,15.06,15.06,0,0,0,5.33-1.22,48.73,48.73,0,0,0,5.65-2.71c2.06-1.15,4.21-2.44,6.38-3.9l.33,16a46.5,46.5,0,0,1-9.58,4.85,28.61,28.61,0,0,1-9.59,1.86,26.73,26.73,0,0,1-6.85-.79,16.1,16.1,0,0,1-5.68-2.63,12.91,12.91,0,0,1-3.89-4.71,16.14,16.14,0,0,1-1.51-7,95.59,95.59,0,0,1-5,9.72,51.05,51.05,0,0,1-5.43,7.57,25.51,25.51,0,0,1-5.67,4.93,10.58,10.58,0,0,1-5.73,1.72q-1,0-1.73-1.45a14.88,14.88,0,0,1-1.19-3.87,55.52,55.52,0,0,1-.73-5.66q-.27-3.23-.38-6.82t-.12-7.38q0-3.78.05-7.37Z"/><path d="M600.06,660.12q-.25-4.38,0-10.14t.66-12.68q.43-6.91,1.14-12.48t1.43-9.54a10.35,10.35,0,0,1,2.6-5.29,8.21,8.21,0,0,1,5.73-2.44q3.7-.25,5.29,1.84a10.5,10.5,0,0,1,1.85,5.73,23.42,23.42,0,0,1,0,2.7q-.09,1.7-.26,3.75t-.36,4.22q-.2,2.18-.32,4.95t-.24,4.14a15,15,0,0,0-.08,1.84l1.39-.1q.37-.76,1.16-2.45a39,39,0,0,0,1.75-4.82,40.17,40.17,0,0,1,2.14-5.58q1.18-2.45,2.19-4.69t1.85-4q.84-1.73,1.26-2.56a12.34,12.34,0,0,1,4.62-5.29,14.6,14.6,0,0,1,6.12-1.83,6.43,6.43,0,0,1,5.68,2.31,12.91,12.91,0,0,1,2.7,7.5,16,16,0,0,1-.09,2.47q-.16,1.75-.43,4.17t-.54,6.25Q647,632,646.77,635t-.29,6a50.53,50.53,0,0,0,.15,5.39A17.89,17.89,0,0,0,648.3,653q1.32,2.55,3.65,2.35a8,8,0,0,0,2.34-.81,10.34,10.34,0,0,0,2.83-1.66,23.87,23.87,0,0,1,3-2.48,35.09,35.09,0,0,0,4.46-3.09c3.52-2.61,7.71-5.8,12.54-9.6l1.47,14.81-3.26,2.87c-.26.25-2.35,1.62-6.29,4.1-5.69,3.58-9.29,5.74-10.75,6.49a67.35,67.35,0,0,1-6.65,3.26,25.73,25.73,0,0,1-7.38,1.7q-3.91.33-7-4.73T633.43,651a71.71,71.71,0,0,1-.11-8.62q.2-4.64.62-10l-1.11.09q-7.78,18-15.9,35.79a8.84,8.84,0,0,1-3,3.92,9.56,9.56,0,0,1-8.84.39,7.68,7.68,0,0,1-2.92-3,14.09,14.09,0,0,1-1.54-4.37A40.4,40.4,0,0,1,600.06,660.12Z"/><path class="cls-1" d="M268.85,761.69a2.52,2.52,0,0,1-.65-2.07l4.75-37a2.64,2.64,0,0,1,1.14-1.87,3.09,3.09,0,0,1,2.27-.55c6.4.81,9.6,1.2,16,2q7.26.85,10.9,4.28a9.66,9.66,0,0,1,3.1,8.5,9.17,9.17,0,0,1-2.53,5.69,11.43,11.43,0,0,1-5.23,3,15.83,15.83,0,0,1,6.36,4.48,8.71,8.71,0,0,1,2,6.76,10.36,10.36,0,0,1-5.25,8.33c-3.1,1.8-7.74,2.36-13.9,1.64-6.73-.79-10.09-1.2-16.81-2.05A3.27,3.27,0,0,1,268.85,761.69Zm19.71-21.29q6.1.72,8.78-.84a6.05,6.05,0,0,0,3-4.85,5.28,5.28,0,0,0-2.11-4.88,13.23,13.23,0,0,0-7-2.54c-5-.59-7.47-.89-12.45-1.51L277.18,739C281.73,739.58,284,739.86,288.56,740.4Zm-.79,19.16c4.48.53,7.73.27,9.73-.74a5.88,5.88,0,0,0,3.38-4.88c.51-4.64-3.29-7.4-11.4-8.36-5.17-.61-7.75-.92-12.92-1.57l-1.75,14C280,758.63,282.58,758.95,287.76,759.56Z"/><path class="cls-1" d="M327.43,768.23a2.52,2.52,0,0,1-.72-2L330.27,729a2.64,2.64,0,0,1,1.07-1.9,3.09,3.09,0,0,1,2.25-.62c10.9,1,16.36,1.5,27.27,2.36a3,3,0,0,1,2,.93,2.43,2.43,0,0,1,.71,1.94,2.33,2.33,0,0,1-1,1.77,3.08,3.08,0,0,1-2.14.57c-9.69-.76-14.53-1.18-24.22-2.07L335,745.54c8.77.81,13.15,1.19,21.93,1.89a3.06,3.06,0,0,1,2,.93,2.42,2.42,0,0,1,.71,1.94,2.33,2.33,0,0,1-1,1.77,3.13,3.13,0,0,1-2.16.57c-8.8-.7-13.2-1.08-22-1.89l-1.25,13.59c9.86.91,14.79,1.33,24.66,2.11a3.11,3.11,0,0,1,2.06.93,2.41,2.41,0,0,1,.73,1.94,2.32,2.32,0,0,1-1,1.77,3.19,3.19,0,0,1-2.18.57q-14-1.09-27.93-2.41A3.26,3.26,0,0,1,327.43,768.23Z"/><path class="cls-1" d="M379,772.72a2.56,2.56,0,0,1-.74-2,3,3,0,0,1,.43-1.2q10.09-17.83,19.87-35.84a4.81,4.81,0,0,1,1.64-1.72,4.07,4.07,0,0,1,2.46-.57l.68,0a4.07,4.07,0,0,1,2.38.84,4.83,4.83,0,0,1,1.44,1.89q7.74,19,15.82,37.8a3,3,0,0,1,.3,1.24,2.56,2.56,0,0,1-1,1.93,3.23,3.23,0,0,1-2.3.7,3.51,3.51,0,0,1-1.76-.54,3.07,3.07,0,0,1-1.16-1.32c-1.64-3.91-2.45-5.87-4.07-9.79-9.43-.46-14.15-.72-23.58-1.3-2,3.72-3.06,5.57-5.12,9.29a3.08,3.08,0,0,1-1.3,1.18,3.51,3.51,0,0,1-1.81.34A3.23,3.23,0,0,1,379,772.72Zm13.17-14.81c7.47.45,11.2.65,18.67,1-3.34-8.17-5-12.25-8.24-20.44C398.44,746.27,396.36,750.16,392.15,757.91Z"/><path class="cls-1" d="M451.92,774.56a20.49,20.49,0,0,1-8.47-7.93,21.41,21.41,0,0,1-2.77-11.81,21.76,21.76,0,0,1,3.51-11.6,20.73,20.73,0,0,1,8.78-7.43,27.76,27.76,0,0,1,12.31-2.39,32.49,32.49,0,0,1,8.27,1.13,38.36,38.36,0,0,1,7.23,2.92,2.45,2.45,0,0,1,1.48,2.35,2.18,2.18,0,0,1-.77,1.62,2.78,2.78,0,0,1-2,.68,3,3,0,0,1-1.23-.26,34.11,34.11,0,0,0-5.86-2.24,27.21,27.21,0,0,0-6.62-.86,21.52,21.52,0,0,0-10.07,2,14.9,14.9,0,0,0-6.4,5.79A17.42,17.42,0,0,0,447,755a17.21,17.21,0,0,0,1.86,8.63,14.76,14.76,0,0,0,6.16,6.13,21.69,21.69,0,0,0,10.15,2.41,27.37,27.37,0,0,0,6.77-.62,33.73,33.73,0,0,0,6-2.07,3.06,3.06,0,0,1,1.25-.23,2.94,2.94,0,0,1,2,.7,2.13,2.13,0,0,1,.75,1.67,2.44,2.44,0,0,1-1.56,2.32,37.88,37.88,0,0,1-7.47,2.73,32.84,32.84,0,0,1-8.5.83A28.08,28.08,0,0,1,451.92,774.56Z"/><path class="cls-1" d="M502.81,776.79a2.52,2.52,0,0,1-.91-2q0-19,0-37.93a2.64,2.64,0,0,1,.89-2,3.08,3.08,0,0,1,2.18-.83,3.2,3.2,0,0,1,2.22.82,2.6,2.6,0,0,1,.93,2l.07,16.35c10.45,0,15.67-.1,26.12-.29l-.3-16.35a2.64,2.64,0,0,1,.85-2,3.08,3.08,0,0,1,2.17-.87,3.21,3.21,0,0,1,2.23.78,2.6,2.6,0,0,1,1,2l.83,37.92a2.48,2.48,0,0,1-.9,2,3.39,3.39,0,0,1-2.25.85,3.26,3.26,0,0,1-2.25-.76,2.52,2.52,0,0,1-.94-1.95l-.3-16.35c-10.48.19-15.72.25-26.2.29l.07,16.35a2.48,2.48,0,0,1-.93,2,3.4,3.4,0,0,1-2.27.81A3.26,3.26,0,0,1,502.81,776.79Z"/><path class="cls-1" d="M594.59,774.39a2.52,2.52,0,0,1-1-1.92l-1.92-37.88a2.64,2.64,0,0,1,.78-2,3.08,3.08,0,0,1,2.14-.94,3.21,3.21,0,0,1,2.26.71,2.6,2.6,0,0,1,1,1.95l.89,16.33c10.44-.57,15.65-.89,26.09-1.61l-1.12-16.31a2.64,2.64,0,0,1,.75-2.05,3.08,3.08,0,0,1,2.12-1,3.21,3.21,0,0,1,2.27.67,2.6,2.6,0,0,1,1.06,1.93l2.74,37.83a2.48,2.48,0,0,1-.8,2,3.4,3.4,0,0,1-2.21,1,3.27,3.27,0,0,1-2.29-.64,2.51,2.51,0,0,1-1-1.9L625.2,754.2c-10.46.72-15.69,1-26.16,1.61l.89,16.33a2.48,2.48,0,0,1-.84,2,3.4,3.4,0,0,1-2.23.92A3.26,3.26,0,0,1,594.59,774.39Z"/><path class="cls-1" d="M654.36,770.34a2.56,2.56,0,0,1-1-1.89,3,3,0,0,1,.25-1.25q7.3-19.15,14.27-38.42a4.81,4.81,0,0,1,1.36-1.95,4.07,4.07,0,0,1,2.35-.93l.68-.07a4.07,4.07,0,0,1,2.48.47,4.84,4.84,0,0,1,1.71,1.65q10.51,17.59,21.33,35a3,3,0,0,1,.48,1.18,2.56,2.56,0,0,1-.66,2,3.24,3.24,0,0,1-2.17,1,3.52,3.52,0,0,1-1.82-.27,3.07,3.07,0,0,1-1.35-1.13c-2.21-3.62-3.31-5.44-5.5-9.07-9.4,1-14.11,1.42-23.52,2.26-1.46,4-2.19,6-3.67,10a3.08,3.08,0,0,1-1.11,1.36,3.52,3.52,0,0,1-1.74.61A3.24,3.24,0,0,1,654.36,770.34Zm10.8-16.62c7.45-.68,11.18-1,18.63-1.79-4.53-7.57-6.78-11.37-11.22-19C669.65,741.27,668.17,745.42,665.17,753.72Z"/><path class="cls-1" d="M726.92,762.77a2.51,2.51,0,0,1-1.14-1.84l-4.34-35c-5.55.69-8.33,1-13.88,1.67a3,3,0,0,1-2.13-.5,2.38,2.38,0,0,1-1-1.74,2.47,2.47,0,0,1,.6-2,2.89,2.89,0,0,1,1.95-1q16.9-2,33.77-4.25a3,3,0,0,1,2.17.48,2.43,2.43,0,0,1,1.1,1.74,2.33,2.33,0,0,1-.6,1.94,3.09,3.09,0,0,1-2,1c-5.52.75-8.28,1.11-13.8,1.81l4.46,34.94a2.48,2.48,0,0,1-.69,2.07,3.41,3.41,0,0,1-2.16,1.08A3.27,3.27,0,0,1,726.92,762.77Z"/><path d="M488.86,714.72c-6.52,0-9.77-.08-16.29-.19,3.47-3.63,5.2-5.45,8.64-9.1l1-1.14a11.48,11.48,0,0,0,.93-1.21,7.06,7.06,0,0,0,.67-1.24,3.22,3.22,0,0,0,.26-1.2,2.64,2.64,0,0,0-.9-2.13,3.38,3.38,0,0,0-2.26-.81,5.27,5.27,0,0,0-2.75.69,6.77,6.77,0,0,0-2.06,1.83l-2.92-2.75a10.5,10.5,0,0,1,3.33-2.55,10.25,10.25,0,0,1,4.56-.85,9.74,9.74,0,0,1,2.75.42,7.4,7.4,0,0,1,2.36,1.2,6,6,0,0,1,1.66,2,5.52,5.52,0,0,1,.61,2.68,6,6,0,0,1-.32,1.92,8.74,8.74,0,0,1-.82,1.75,13,13,0,0,1-1.21,1.66l-1.45,1.67-3.18,3.55,7.41.07Z"/><path d="M512.21,704.85a11.3,11.3,0,0,1-.61,3.71,10.25,10.25,0,0,1-1.83,3.3,9.35,9.35,0,0,1-3,2.36,8.59,8.59,0,0,1-4,.91,8.51,8.51,0,0,1-4-.9,9.42,9.42,0,0,1-3-2.35,10.49,10.49,0,0,1-1.85-3.3,11.1,11.1,0,0,1-.63-3.71A12.78,12.78,0,0,1,494,701a11.33,11.33,0,0,1,1.78-3.45,9,9,0,0,1,2.92-2.48,8.43,8.43,0,0,1,4.05-.95,8.27,8.27,0,0,1,4,1,9.32,9.32,0,0,1,2.93,2.49,11.18,11.18,0,0,1,1.8,3.45A12.73,12.73,0,0,1,512.21,704.85Zm-4.46,0a12.79,12.79,0,0,0-.24-2.32,8.12,8.12,0,0,0-.82-2.34,5.58,5.58,0,0,0-1.53-1.81,3.72,3.72,0,0,0-2.35-.73,3.55,3.55,0,0,0-2.28.75,5.9,5.9,0,0,0-1.52,1.84,8.67,8.67,0,0,0-.86,2.36,11.3,11.3,0,0,0-.26,2.27,9.78,9.78,0,0,0,.27,2.23,7.78,7.78,0,0,0,.87,2.18,5.24,5.24,0,0,0,1.53,1.67,4.23,4.23,0,0,0,4.53,0,5.29,5.29,0,0,0,1.53-1.66,7.6,7.6,0,0,0,.86-2.19A9.92,9.92,0,0,0,507.75,704.87Z"/><path d="M531.33,714.5c-6.51.11-9.77.15-16.29.21,3.38-3.71,5.07-5.57,8.41-9.3l1-1.16a11.5,11.5,0,0,0,.91-1.24,7.06,7.06,0,0,0,.64-1.26,3.22,3.22,0,0,0,.23-1.2,2.64,2.64,0,0,0-1-2.11,3.38,3.38,0,0,0-2.27-.75,5.27,5.27,0,0,0-2.74.75,6.77,6.77,0,0,0-2,1.88l-3-2.67a10.49,10.49,0,0,1,3.27-2.63,10.25,10.25,0,0,1,4.54-1,9.75,9.75,0,0,1,2.76.35,7.4,7.4,0,0,1,2.39,1.14,6,6,0,0,1,1.7,1.92,5.52,5.52,0,0,1,.68,2.66,6,6,0,0,1-.27,1.92,8.74,8.74,0,0,1-.78,1.77,13,13,0,0,1-1.17,1.68l-1.41,1.7-3.1,3.63,7.41-.11Z"/><path d="M554.43,704.07a11.3,11.3,0,0,1-.52,3.73,10.25,10.25,0,0,1-1.75,3.35,9.35,9.35,0,0,1-2.91,2.43,8.59,8.59,0,0,1-4,1,8.51,8.51,0,0,1-4-.8,9.42,9.42,0,0,1-3-2.28,10.49,10.49,0,0,1-1.93-3.25,11.1,11.1,0,0,1-.72-3.7,12.78,12.78,0,0,1,.53-3.87,11.33,11.33,0,0,1,1.7-3.49,9,9,0,0,1,2.86-2.55,8.43,8.43,0,0,1,4-1,8.27,8.27,0,0,1,4.06.85,9.32,9.32,0,0,1,3,2.42,11.18,11.18,0,0,1,1.89,3.4A12.73,12.73,0,0,1,554.43,704.07Zm-4.46.13a12.79,12.79,0,0,0-.3-2.32,8.12,8.12,0,0,0-.87-2.32,5.58,5.58,0,0,0-1.57-1.78,3.72,3.72,0,0,0-2.36-.67,3.55,3.55,0,0,0-2.26.8,5.9,5.9,0,0,0-1.48,1.88,8.67,8.67,0,0,0-.8,2.38,11.3,11.3,0,0,0-.21,2.28,9.78,9.78,0,0,0,.33,2.23,7.78,7.78,0,0,0,.92,2.16,5.24,5.24,0,0,0,1.57,1.63,4.23,4.23,0,0,0,4.53-.11,5.29,5.29,0,0,0,1.49-1.69,7.61,7.61,0,0,0,.81-2.21A10,10,0,0,0,550,704.2Z"/><path class="cls-2" d="M280.07,691.6q81.71,9.8,163.87,12.51"/><path class="cls-2" d="M578.15,703.33q81.69-3.64,162.67-14.26"/></svg>